<svg width="240" height="320" viewBox="0 0 240 320" fill="none" xmlns="http://www.w3.org/2000/svg">
  <rect x="6" y="6" width="228" height="308" rx="18" fill="#B10F25" stroke="#FFFFFF" stroke-width="4"/>
  <rect x="16" y="16" width="208" height="288" rx="14" stroke="#FFFFFF" stroke-width="4"/>
  <path d="M120 110c14 0 24 10 24 24 0 8-4 15-10 20 7 2 12 9 12 16 0 10-8 18-18 18-8 0-15-5-17-12-2 7-9 12-17 12-10 0-18-8-18-18 0-7 5-14 12-16-6-5-10-12-10-20 0-14 10-24 24-24 7 0 13 2 18 6 5-4 11-6 18-6z" fill="#FFFFFF" opacity="0.9"/>
</svg>
